HIERARCHY
ROOT hip
{
  OFFSET 13.2505 84.3174 17.1507
  CHANNELS 6 Xposition Yposition Zposition Zrotation Xrotation Yrotation
  JOINT abdomen
  {
    OFFSET 0 20.6881 -0.73152
    CHANNELS 3 Zrotation Xrotation Yrotation
    JOINT chest
    {
      OFFSET 0 11.7043 -0.48768
      CHANNELS 3 Zrotation Xrotation Yrotation
      JOINT neck
      {
        OFFSET 0 22.1894 -2.19456
        CHANNELS 3 Zrotation Xrotation Yrotation
        JOINT head
        {
          OFFSET -0.24384 7.07133 1.2192
          CHANNELS 3 Zrotation Xrotation Yrotation
          JOINT leftEye
          {
            OFFSET 4.14528 8.04674 8.04672
            CHANNELS 3 Zrotation Xrotation Yrotation
            End Site
            {
              OFFSET 1 0 0
            }
          }
          JOINT rightEye
          {
            OFFSET -3.6576 8.04674 8.04672
            CHANNELS 3 Zrotation Xrotation Yrotation
            End Site
            {
              OFFSET 1 0 0
            }
          }
        }
      }
      JOINT rCollar
      {
        OFFSET -2.68224 19.2634 -4.8768
        CHANNELS 3 Zrotation Xrotation Yrotation
        JOINT rShldr
        {
          OFFSET -8.77824 -1.95073 1.46304
          CHANNELS 3 Zrotation Xrotation Yrotation
          JOINT rForeArm
          {
            OFFSET -28.1742 -1.7115 0.48768
            CHANNELS 3 Zrotation Xrotation Yrotation
            JOINT rHand
            {
              OFFSET -22.5879 0.773209 7.07136
              CHANNELS 3 Zrotation Xrotation Yrotation
              JOINT rThumb1
              {
                OFFSET -1.2192 -0.487915 3.41376
                CHANNELS 3 Zrotation Xrotation Yrotation
                JOINT rThumb2
                {
                  OFFSET -3.37035 -0.52449 3.41376
                  CHANNELS 3 Zrotation Xrotation Yrotation
                  End Site
                  {
                    OFFSET -1.78271 -1.18214 1.43049
                  }
                }
              }
              JOINT rIndex1
              {
                OFFSET -7.75947 0.938293 5.60832
                CHANNELS 3 Zrotation Xrotation Yrotation
                JOINT rIndex2
                {
                  OFFSET -2.54057 -0.884171 1.56538
                  CHANNELS 3 Zrotation Xrotation Yrotation
                  End Site
                  {
                    OFFSET -1.62519 -0.234802 1.16502
                  }
                }
              }
              JOINT rMid1
              {
                OFFSET -8.24714 1.18213 3.41376
                CHANNELS 3 Zrotation Xrotation Yrotation
                JOINT rMid2
                {
                  OFFSET -3.10165 -0.590103 1.0647
                  CHANNELS 3 Zrotation Xrotation Yrotation
                  End Site
                  {
                    OFFSET -2.48547 -0.328903 0.83742
                  }
                }
              }
              JOINT rRing1
              {
                OFFSET -8.82822 0.546677 1.51678
                CHANNELS 3 Zrotation Xrotation Yrotation
                JOINT rRing2
                {
                  OFFSET -2.60934 -0.819778 -0.0198488
                  CHANNELS 3 Zrotation Xrotation Yrotation
                  End Site
                  {
                    OFFSET -2.33842 -0.294052 0.168128
                  }
                }
              }
              JOINT rPinky1
              {
                OFFSET -8.27202 -0.0477905 -0.4584
                CHANNELS 3 Zrotation Xrotation Yrotation
                JOINT rPinky2
                {
                  OFFSET -1.82734 -0.647385 -0.700984
                  CHANNELS 3 Zrotation Xrotation Yrotation
                  End Site
                  {
                    OFFSET -1.69225 -0.51767 -0.607171
                  }
                }
              }
            }
          }
        }
      }
      JOINT lCollar
      {
        OFFSET 2.68224 19.2634 -4.8768
        CHANNELS 3 Zrotation Xrotation Yrotation
        JOINT lShldr
        {
          OFFSET 8.77824 -1.95073 1.46304
          CHANNELS 3 Zrotation Xrotation Yrotation
          JOINT lForeArm
          {
            OFFSET 28.1742 -1.7115 0.48768
            CHANNELS 3 Zrotation Xrotation Yrotation
            JOINT lHand
            {
              OFFSET 22.5879 0.773209 7.07136
              CHANNELS 3 Zrotation Xrotation Yrotation
              JOINT lThumb1
              {
                OFFSET 1.2192 -0.487915 3.41376
                CHANNELS 3 Zrotation Xrotation Yrotation
                JOINT lThumb2
                {
                  OFFSET 3.37035 -0.52449 3.41376
                  CHANNELS 3 Zrotation Xrotation Yrotation
                  End Site
                  {
                    OFFSET 1.78271 -1.18214 1.43049
                  }
                }
              }
              JOINT lIndex1
              {
                OFFSET 7.75947 0.938293 5.60832
                CHANNELS 3 Zrotation Xrotation Yrotation
                JOINT lIndex2
                {
                  OFFSET 2.54057 -0.884171 1.56538
                  CHANNELS 3 Zrotation Xrotation Yrotation
                  End Site
                  {
                    OFFSET 1.62519 -0.234802 1.16502
                  }
                }
              }
              JOINT lMid1
              {
                OFFSET 8.24714 1.18213 3.41376
                CHANNELS 3 Zrotation Xrotation Yrotation
                JOINT lMid2
                {
                  OFFSET 3.10165 -0.590103 1.0647
                  CHANNELS 3 Zrotation Xrotation Yrotation
                  End Site
                  {
                    OFFSET 2.48547 -0.328903 0.83742
                  }
                }
              }
              JOINT lRing1
              {
                OFFSET 8.82822 0.546677 1.51678
                CHANNELS 3 Zrotation Xrotation Yrotation
                JOINT lRing2
                {
                  OFFSET 2.60934 -0.819778 -0.0198488
                  CHANNELS 3 Zrotation Xrotation Yrotation
                  End Site
                  {
                    OFFSET 2.33842 -0.294052 0.168128
                  }
                }
              }
              JOINT lPinky1
              {
                OFFSET 8.27202 -0.0477905 -0.4584
                CHANNELS 3 Zrotation Xrotation Yrotation
                JOINT lPinky2
                {
                  OFFSET 1.82734 -0.647385 -0.700984
                  CHANNELS 3 Zrotation Xrotation Yrotation
                  End Site
                  {
                    OFFSET 1.69225 -0.51767 -0.607171
                  }
                }
              }
            }
          }
        }
      }
    }
  }
  JOINT rButtock
  {
    OFFSET -8.77824 4.35084 1.2192
    CHANNELS 3 Zrotation Xrotation Yrotation
    JOINT rThigh
    {
      OFFSET 0 -1.70687 -2.19456
      CHANNELS 3 Zrotation Xrotation Yrotation
      JOINT rShin
      {
        OFFSET 0 -36.8199 0.73152
        CHANNELS 3 Zrotation Xrotation Yrotation
        JOINT rFoot
        {
          OFFSET 0.73152 -45.1104 -5.12064
          CHANNELS 3 Zrotation Xrotation Yrotation
          End Site
          {
            OFFSET -1.1221 -3.69964 12.103
          }
        }
      }
    }
  }
  JOINT lButtock
  {
    OFFSET 8.77824 4.35084 1.2192
    CHANNELS 3 Zrotation Xrotation Yrotation
    JOINT lThigh
    {
      OFFSET 0 -1.70687 -2.19456
      CHANNELS 3 Zrotation Xrotation Yrotation
      JOINT lShin
      {
        OFFSET 0 -36.8199 0.73152
        CHANNELS 3 Zrotation Xrotation Yrotation
        JOINT lFoot
        {
          OFFSET -0.73152 -45.1104 -5.12064
          CHANNELS 3 Zrotation Xrotation Yrotation
          End Site
          {
            OFFSET 1.1221 -3.69964 12.103
          }
        }
      }
    }
  }
}
MOTION
Frames:	6
Frame Time:	0.00833333
2.31103 85.1169 18.0775 1.13399 -3.52919 -4.03837 -3.43961 5.81092 3.00853 0.228188 -2.62378 0.870426 -6.62065 11.1406 -3.9026 8.658 -1.90409 -6.87622 -0 0 0 -0 0 0 7.3225e-015 -8.40133e-014 -9.6395e-014 57.2355 52.2862 18.7534 -27.0101 -43.9885 91.4212 -0.280857 -14.9713 -2.1532 3.16499e-011 8.52654e-010 -6.82386e-010 6.39022e-011 1.50629e-009 -1.18237e-009 3.16606e-011 8.52664e-010 -6.82397e-010 7.73091 5.47488 0.417314 3.16323e-011 8.52625e-010 -6.82388e-010 2.90554 0.965183 0.102902 3.16578e-011 8.52652e-010 -6.8239e-010 10.2786 0.731801 0.0259123 3.16448e-011 8.52654e-010 -6.82383e-010 2.22167 -0.733487 -0.20892 7.17684e-015 -8.40146e-014 -9.69013e-014 -76.1001 4.3908 1.81166 10.4121 -4.39556 -18.5766 0.142277 10.6893 -1.52015 5.26719e-010 9.46462e-010 -9.08013e-010 9.02398e-010 1.6338e-009 -1.57541e-009 5.26715e-010 9.46461e-010 -9.08003e-010 -7.73091 5.47488 -0.417314 5.26721e-010 9.46461e-010 -9.08009e-010 -2.90554 0.965183 -0.102902 5.26706e-010 9.4646e-010 -9.0801e-010 -10.2786 0.731801 -0.0259123 5.26717e-010 9.4646e-010 -9.0801e-010 -2.22167 -0.733487 0.20892 -2.03217e-016 0 -3.88251e-019 -4.22189 3.14421 18.2977 -0.0140682 10.4387 0.190875 -5.01331 -8.28507 -23.2464 2.03217e-016 0 3.88251e-019 1.91952 3.90707 -11.1249 0.00392383 7.21136 -0.146473 3.80408 -5.71685 19.1771 
2.31969 85.1145 18.0668 1.15384 -3.50601 -4.05795 -3.47199 5.77646 3.05536 0.218621 -2.6081 0.882968 -6.64243 11.1112 -3.87976 8.78539 -1.9911 -6.81861 -0 0 0 -0 0 0 5.33786e-014 -1.00976e-013 -2.62806e-013 57.0105 52.1934 18.98 -27.0054 -44.0009 91.4459 -0.235326 -13.7229 -1.96635 6.10226e-011 1.02601e-009 -6.62329e-010 1.16128e-010 1.81355e-009 -1.14925e-009 6.10284e-011 1.02602e-009 -6.62335e-010 7.73091 5.47488 0.417314 6.0996e-011 1.02597e-009 -6.62326e-010 2.90554 0.965183 0.102902 6.10286e-011 1.02601e-009 -6.62332e-010 10.2786 0.731801 0.0259123 6.10148e-011 1.02601e-009 -6.62326e-010 2.22167 -0.733487 -0.20892 5.31727e-014 -1.00975e-013 -2.63413e-013 -76.1093 4.45022 1.8272 10.4068 -4.39226 -18.5667 0.142027 10.6813 -1.51898 9.09461e-010 2.40216e-009 -1.63077e-009 1.55709e-009 4.14892e-009 -2.8291e-009 9.09455e-010 2.40216e-009 -1.63076e-009 -7.73091 5.47488 -0.417314 9.09463e-010 2.40216e-009 -1.63077e-009 -2.90554 0.965183 -0.102902 9.09451e-010 2.40215e-009 -1.63077e-009 -10.2786 0.731801 -0.0259123 9.09457e-010 2.40215e-009 -1.63077e-009 -2.22167 -0.733487 0.20892 -2.03217e-016 0 -3.88251e-019 -4.24368 3.09496 18.3168 -0.011891 10.4722 0.19157 -5.0201 -8.28813 -23.2515 2.03217e-016 0 3.88251e-019 1.89416 3.90058 -11.1177 0.00581144 7.17708 -0.145239 3.79315 -5.67275 19.2113 
2.32691 85.1124 18.0547 1.16053 -3.49651 -4.08134 -3.48997 5.76415 3.09171 0.215605 -2.60607 0.892804 -6.66669 11.077 -3.85696 8.90429 -2.05795 -6.76204 -0 0 0 -0 0 0 7.97649e-014 -9.51076e-014 -3.53439e-013 56.735 52.1166 19.2416 -26.9999 -44.0159 91.4756 -0.197299 -12.5545 -1.7935 5.09509e-011 9.58368e-010 -5.30981e-010 9.85189e-011 1.69746e-009 -9.23032e-010 5.09529e-011 9.58367e-010 -5.30984e-010 7.73091 5.47488 0.417314 5.09204e-011 9.58321e-010 -5.30975e-010 2.90554 0.965183 0.102902 5.09558e-011 9.58367e-010 -5.30982e-010 10.2786 0.731801 0.0259123 5.09418e-011 9.5837e-010 -5.30978e-010 2.22167 -0.733487 -0.20892 7.95166e-014 -9.51053e-014 -3.54085e-013 -76.1271 4.48797 1.84982 10.3942 -4.38439 -18.5429 0.141829 10.6747 -1.51802 1.11012e-009 3.24782e-009 -1.90584e-009 1.90127e-009 5.6107e-009 -3.30692e-009 1.11012e-009 3.24782e-009 -1.90583e-009 -7.73091 5.47488 -0.417314 1.11013e-009 3.24782e-009 -1.90584e-009 -2.90554 0.965183 -0.102902 1.11012e-009 3.24782e-009 -1.90584e-009 -10.2786 0.731801 -0.0259123 1.11012e-009 3.24782e-009 -1.90584e-009 -2.22167 -0.733487 0.20892 -2.03217e-016 0 -3.88251e-019 -4.25156 3.06455 18.3397 -0.0102484 10.4959 0.191989 -5.02331 -8.28475 -23.2541 2.03217e-016 0 3.88251e-019 1.88334 3.90665 -11.1082 0.00747066 7.14943 -0.144413 3.78805 -5.64918 19.2353 
2.32197 85.1135 18.0492 1.14878 -3.5075 -4.11361 -3.48656 5.78264 3.11417 0.221158 -2.6234 0.899034 -6.69457 11.0334 -3.83652 9.00278 -2.08946 -6.71197 -0 0 0 -0 0 0 7.54261e-014 -4.8846e-014 -3.31537e-013 56.3939 52.0758 19.5435 -26.9933 -44.0335 91.5106 -0.16455 -11.474 -1.63486 -3.53494e-011 4.61224e-010 -1.88549e-010 -5.36733e-011 8.27655e-010 -3.30875e-010 -3.53503e-011 4.6122e-010 -1.88553e-010 7.73091 5.47488 0.417314 -3.53758e-011 4.61183e-010 -1.88543e-010 2.90554 0.965183 0.102902 -3.53446e-011 4.61223e-010 -1.88548e-010 10.2786 0.731801 0.0259123 -3.53576e-011 4.61225e-010 -1.88543e-010 2.22167 -0.733487 -0.20892 7.5152e-014 -4.88433e-014 -3.32128e-013 -76.1579 4.51468 1.88266 10.3713 -4.37009 -18.4996 0.140411 10.6164 -1.50955 1.04842e-009 3.21685e-009 -1.45282e-009 1.79876e-009 5.55918e-009 -2.52338e-009 1.04841e-009 3.21685e-009 -1.45281e-009 -7.73091 5.47488 -0.417314 1.04842e-009 3.21685e-009 -1.45282e-009 -2.90554 0.965183 -0.102902 1.04841e-009 3.21685e-009 -1.45282e-009 -10.2786 0.731801 -0.0259123 1.04842e-009 3.21685e-009 -1.45282e-009 -2.22167 -0.733487 0.20892 -2.03217e-016 0 -3.88251e-019 -4.24061 3.0614 18.3718 -0.0093526 10.506 0.192019 -5.02174 -8.27025 -23.2543 2.03217e-016 0 3.88251e-019 1.89243 3.93682 -11.092 0.0089906 7.1246 -0.144063 3.79136 -5.65572 19.2444 
2.31333 85.1163 18.0494 1.12442 -3.53302 -4.1556 -3.469 5.82243 3.13095 0.23202 -2.65426 0.903845 -6.72501 10.9881 -3.81572 9.0923 -2.10462 -6.6623 -0 0 0 -0 0 0 5.15487e-014 2.5092e-014 -2.40765e-013 56.0029 52.0563 19.8763 -26.9857 -44.0539 91.5511 -0.135285 -10.4357 -1.4833 -1.78013e-010 -3.34624e-010 3.04899e-010 -3.05202e-010 -5.65959e-010 5.22958e-010 -1.78017e-010 -3.34632e-010 3.04892e-010 7.73091 5.47488 0.417314 -1.7803e-010 -3.34651e-010 3.04902e-010 2.90554 0.965183 0.102902 -1.78008e-010 -3.34626e-010 3.04903e-010 10.2786 0.731801 0.0259123 -1.78019e-010 -3.34626e-010 3.0491e-010 2.22167 -0.733487 -0.20892 5.12574e-014 2.50946e-014 -2.41238e-013 -76.1981 4.54107 1.92392 10.3406 -4.35095 -18.4417 0.137892 10.5116 -1.49437 8.38888e-010 2.66797e-009 -5.27771e-010 1.44514e-009 4.61379e-009 -9.22299e-010 8.38882e-010 2.66797e-009 -5.27758e-010 -7.73091 5.47488 -0.417314 8.3889e-010 2.66797e-009 -5.27772e-010 -2.90554 0.965183 -0.102902 8.38884e-010 2.66797e-009 -5.2777e-010 -10.2786 0.731801 -0.0259123 8.38886e-010 2.66797e-009 -5.27775e-010 -2.22167 -0.733487 0.20892 -2.03217e-016 0 -3.88251e-019 -4.21715 3.07539 18.4138 -0.00879392 10.5095 0.191839 -5.01764 -8.24932 -23.2526 2.03217e-016 0 3.88251e-019 1.91475 3.98622 -11.0675 0.0105742 7.09888 -0.143966 3.80007 -5.68165 19.2445 
2.29895 85.1176 18.0471 1.09487 -3.56222 -4.19528 -3.44773 5.87117 3.14362 0.246116 -2.6902 0.907619 -6.75621 10.9453 -3.7914 9.19091 -2.12333 -6.60537 -0 0 0 -0 0 0 2.46173e-014 9.67299e-014 -1.31078e-013 55.5838 52.0225 20.2356 -26.9771 -44.0766 91.5964 -0.110409 -9.45609 -1.34121 -3.09175e-010 -1.10315e-009 7.69881e-010 -5.36818e-010 -1.91253e-009 1.32781e-009 -3.0918e-010 -1.10316e-009 7.6987e-010 7.73091 5.47488 0.417314 -3.09182e-010 -1.10316e-009 7.69881e-010 2.90554 0.965183 0.102902 -3.09169e-010 -1.10315e-009 7.69887e-010 10.2786 0.731801 0.0259123 -3.09178e-010 -1.10315e-009 7.69896e-010 2.22167 -0.733487 -0.20892 2.43257e-014 9.6732e-014 -1.31419e-013 -76.2401 4.53516 1.96788 10.3069 -4.32996 -18.3781 0.137017 10.4762 -1.48923 5.76273e-010 1.93199e-009 4.30473e-010 1.00011e-009 3.34487e-009 7.36811e-010 5.76268e-010 1.93199e-009 4.30488e-010 -7.73091 5.47488 -0.417314 5.76274e-010 1.93199e-009 4.30474e-010 -2.90554 0.965183 -0.102902 5.76269e-010 1.93198e-009 4.30473e-010 -10.2786 0.731801 -0.0259123 5.76274e-010 1.93199e-009 4.30467e-010 -2.22167 -0.733487 0.20892 -2.03217e-016 0 -3.88251e-019 -4.18759 3.09511 18.4534 -0.00840092 10.5094 0.191568 -5.012 -8.22896 -23.2488 2.03217e-016 0 3.88251e-019 1.94317 4.03251 -11.0459 0.0118659 7.08363 -0.144137 3.81071 -5.7134 19.2415 
